<?xml version="1.0" encoding="utf-8"?>
<!-- Generator: Adobe Illustrator 22.1.0, SVG Export Plug-In . SVG Version: 6.00 Build 0)  -->
<svg version="1.1" id="Layer_1" xmlns="http://www.w3.org/2000/svg" xmlns:xlink="http://www.w3.org/1999/xlink" x="0px" y="0px"
	 viewBox="0 0 1920 1080" style="enable-background:new 0 0 1920 1080;" xml:space="preserve">
<style type="text/css">
	.st0{fill:#FFFFFF;}
</style>
<g>
	<g>
		<path class="st0" d="M1121.9,225.3c-51.4-51.3-122.2-83.2-200.1-83.2c-155.9,0-283.3,127.5-283.3,283.3v57.9
			c0,155.8,127.5,283.3,283.3,283.3c155.8,0,283.3-127.5,283.3-283.3v-57.9C1205.2,347.5,1173.3,276.6,1121.9,225.3z M921.8,633.2
			c-68.9,0-124.7-80-124.7-178.8S853,275.5,921.8,275.5c68.9,0,124.7,80.1,124.7,178.8S990.7,633.2,921.8,633.2z"/>
		<g>
			<path class="st0" d="M1204.8,622c-26.5,56.6-69.5,104-122.7,136.1h187.6L1204.8,622z M922.7,30.7l-41.4,86.5
				c13.3-1.8,26.9-2.7,40.7-2.7c14.3,0,28.3,1,42.1,2.9L922.7,30.7z M639.2,622.3l-65.1,135.8h187.6
				C708.6,726.1,665.6,678.8,639.2,622.3z"/>
		</g>
		<polygon class="st0" points="238.8,283.1 238.8,387 520.6,387 520.6,505.3 238.8,505.3 238.8,624.4 551.1,624.4 551.1,758.1 
			63,758.1 63,149 535.6,149 535.6,283.1 		"/>
		<path class="st0" d="M1676.9,148.5v223.7h-192V148.5h-175.4v609.6h175.4V505.5h192v252.6H1857V148.5H1676.9z"/>
	</g>
	<g>
		<path class="st0" d="M946.2,901.7c-18.5,0-33,6.1-43.7,18.4c-10.7,12.3-16,29.1-16,50.5c0,22,5.2,39,15.5,51
			c10.3,12,25,18,44.1,18c11.7,0,25.1-2.1,40.1-6.3v17.1c-11.6,4.4-26,6.6-43.1,6.6c-24.7,0-43.8-7.5-57.3-22.5
			c-13.4-15-20.2-36.4-20.2-64c0-17.3,3.2-32.5,9.7-45.5c6.5-13,15.8-23.1,28-30.1c12.2-7,26.6-10.6,43.2-10.6
			c17.6,0,33,3.2,46.2,9.7l-8.3,16.8C971.7,904.7,959,901.7,946.2,901.7z"/>
		<path class="st0" d="M1168.6,970.4c0,26.9-6.8,48-20.4,63.4c-13.6,15.4-32.5,23.1-56.7,23.1c-24.7,0-43.8-7.6-57.3-22.7
			c-13.4-15.1-20.2-36.5-20.2-64.1c0-27.4,6.7-48.6,20.2-63.6c13.5-15.1,32.6-22.6,57.5-22.6c24.1,0,43,7.7,56.5,23
			C1161.9,922.3,1168.6,943.4,1168.6,970.4z M1034.7,970.4c0,22.8,4.8,40,14.5,51.8c9.7,11.8,23.8,17.6,42.2,17.6
			c18.6,0,32.7-5.9,42.2-17.6c9.5-11.7,14.3-29,14.3-51.8c0-22.6-4.7-39.7-14.2-51.4c-9.5-11.7-23.5-17.5-42-17.5
			c-18.6,0-32.8,5.9-42.5,17.6C1039.6,930.9,1034.7,948,1034.7,970.4z"/>
		<path class="st0" d="M1311.7,1054.7l-20.9-53.4h-67.3l-20.7,53.4H1183l66.4-168.7h16.4l66.1,168.7H1311.7z M1284.7,983.6
			l-19.5-52.1c-2.5-6.6-5.1-14.7-7.8-24.2c-1.7,7.4-4.1,15.4-7.2,24.2l-19.8,52.1H1284.7z"/>
		<path class="st0" d="M1449.9,1010c0,14.8-5.4,26.3-16.1,34.6c-10.7,8.3-25.3,12.4-43.7,12.4c-19.9,0-35.2-2.6-46-7.7v-18.8
			c6.9,2.9,14.4,5.2,22.5,6.9c8.1,1.7,16.2,2.5,24.1,2.5c13,0,22.8-2.5,29.4-7.4c6.6-4.9,9.9-11.8,9.9-20.6c0-5.8-1.2-10.6-3.5-14.3
			c-2.3-3.7-6.2-7.1-11.7-10.3c-5.5-3.1-13.8-6.7-25-10.7c-15.6-5.6-26.8-12.2-33.5-19.9c-6.7-7.7-10.1-17.7-10.1-30
			c0-12.9,4.9-23.3,14.6-30.9c9.7-7.7,22.6-11.5,38.6-11.5c16.7,0,32.1,3.1,46.1,9.2l-6.1,17c-13.9-5.8-27.4-8.7-40.5-8.7
			c-10.3,0-18.4,2.2-24.2,6.7c-5.8,4.4-8.7,10.6-8.7,18.5c0,5.8,1.1,10.6,3.2,14.3c2.1,3.7,5.8,7.1,10.9,10.2
			c5.1,3.1,12.9,6.5,23.4,10.3c17.6,6.3,29.7,13,36.4,20.2C1446.5,989.1,1449.9,998.5,1449.9,1010z"/>
		<path class="st0" d="M1535.9,1054.7h-19.5V904h-53.2v-17.4h126V904h-53.2V1054.7z"/>
		<path class="st0" d="M1720.1,1054.7l-20.9-53.4h-67.3l-20.7,53.4h-19.8l66.4-168.7h16.4l66.1,168.7H1720.1z M1693,983.6
			l-19.5-52.1c-2.5-6.6-5.1-14.7-7.8-24.2c-1.7,7.4-4.1,15.4-7.2,24.2l-19.8,52.1H1693z"/>
		<path class="st0" d="M1763.4,1054.7v-168h19.5V1037h74.1v17.7H1763.4z"/>
	</g>
</g>
</svg>
